<?xml version="1.0" encoding="utf-8"?>
<!-- Generator: Adobe Illustrator 25.2.3, SVG Export Plug-In . SVG Version: 6.00 Build 0)  -->
<svg version="1.1" id="Capa_1" xmlns="http://www.w3.org/2000/svg" xmlns:xlink="http://www.w3.org/1999/xlink" x="0px" y="0px"
	 width="200px" height="102px" viewBox="0 0 100 100" style="enable-background:new 0 0 405 102;" xml:space="preserve">
<style type="text/css">
	.st0{fill:#FFFFFF;}
</style>


	<g>
		<path class="st0" d="M42.3,61.1l-4.5-3.6c2.3,6.4,7.2,8.9,10.2,9.9c0.3-1,0.5-2,0.6-3.1l-1.2-1L42.3,61.1z M41.2,53.5l-4.6-4.1
			c0,0.2,0,0.3,0,0.4c0,1.4,0.1,2.6,0.3,3.8c0.2,0.3,1.1,1.7,1.5,2.3l4.7,3.8l5.7,2.4l0,0l0.2-3.9l0,0l-1.1-1.1L41.2,53.5z
			 M47.1,35.9l1.8,1.6l-0.1-6.3c-0.5,0.2-1.1,0.4-1.7,0.7c-0.6,0.3-1.3,0.6-2.1,1.1c0.2,0.3,0.4,0.8,0.6,1.2L47.1,35.9z M44.7,40.4
			l4.4,3.3L49,39.8l-0.8-1L46,37l-2.5-3c-0.8,0.6-1.6,1.4-2.4,2.2c0.2,0.4,0.5,1,0.6,1.3L44.7,40.4z M43.1,46.4l6,3.6L49,46l-1-1.1
			l-4.5-3.4l-3.7-3.8c-0.6,0.9-1.2,2-1.7,3.2l0,0c0.2,0.3,0.5,0.9,0.8,1.3L43.1,46.4z M48.2,51.3l-6-3.6L37.5,43
			c-0.3,1.2-0.6,2.4-0.8,3.8c0.2,0.3,0.7,1.1,1.1,1.7l4.3,3.8l6.9,3.8l0.2-3.2v-0.4L48.2,51.3z M64.4,63.5c-2.6,2.9-5.6,5-9.1,6.1
			l-0.7-1.1l-0.3-1.8c4-1.8,9.8-6.2,9.8-17c0-11.6-6.7-16.3-10.7-18.1L53.2,30l0.1-1.2c4.3,0.6,8,2.5,11,5.6
			c3.7,3.9,5.6,8.7,5.6,14.5C69.8,54.6,68,59.4,64.4,63.5 M59.2,81.6c-7.5,0-9.5-6.9-11.3-9.3c-1-1.3-2.1-2.1-3.4-2.5
			c-4.2-1.2-7.5-3.6-10.1-7.2c-2.6-3.5-3.8-7.7-3.8-12.4c0-5.7,1.9-10.6,5.7-14.8s8.4-6.4,13.9-6.8c0.4,0,0.8,0,1.2,0l0.2,2.2v0.1
			v1.5l-0.3,14.3l0.5,14.1c0,0.2,0,0.3,0,0.5v1.2c0,0.7,0.1,1.4,0.2,2c0.1,1,0.2,1.9,0.4,2.9c0.2,0.9,0.3,1.8,0.6,2.6
			c0.2,0.7,0.4,1.4,0.6,2l0,0c0.8,1.8,2.3,4.1,2.6,4.4s2.8,1.6,3.5,1.8c0.7,0.2,4.1,0.2,4.1,0.2l0.4,2
			C63.4,80.8,62.3,81.6,59.2,81.6 M50.2,9.4C27.2,9.4,8.6,28,8.6,51s18.6,41.6,41.6,41.6S91.8,74,91.8,51C91.8,28,73.2,9.4,50.2,9.4
			"/>
	</g>

</svg>
